<svg width="24" height="24" viewBox="0 0 24 24" fill="none" xmlns="http://www.w3.org/2000/svg">
<path d="M23.4678 9.91191L22.2708 9.62419C22.0085 8.48025 21.5636 7.40428 20.9442 6.4148L21.5519 5.40131C21.7181 5.12461 21.6741 4.77028 21.4462 4.54233L19.4576 2.5538C19.2303 2.32514 18.8753 2.28122 18.5986 2.44805L17.5852 3.05573C16.5957 2.43638 15.5197 1.99144 14.3758 1.72913L14.088 0.579C14.0098 0.266625 13.729 0 13.4062 0H10.5938C10.271 0 9.99019 0.266625 9.91191 0.579047L9.62419 1.72917C8.48025 1.99148 7.40428 2.43642 6.4148 3.05578L5.40131 2.44809C5.12461 2.28328 4.77028 2.32589 4.54233 2.55384L2.5538 4.54233C2.32584 4.77028 2.28187 5.12461 2.44805 5.40131L3.05573 6.4148C2.43638 7.40423 1.99144 8.48025 1.72913 9.62419L0.532125 9.91191C0.21975 9.99019 0 10.271 0 10.5938V13.4062C0 13.729 0.21975 14.0098 0.532172 14.0881L1.72917 14.3758C1.99148 15.5197 2.43642 16.5957 3.05578 17.5852L2.44809 18.5987C2.28192 18.8754 2.32589 19.2297 2.55384 19.4577L4.54238 21.4462C4.76967 21.6749 5.1233 21.7167 5.40136 21.552L6.41484 20.9443C7.40428 21.5636 8.4803 22.0086 9.62423 22.2709L9.91195 23.4679C9.99019 23.7803 10.271 24 10.5938 24H13.4062C13.729 24 14.0098 23.7803 14.0881 23.4678L14.3758 22.2708C15.5197 22.0085 16.5957 21.5636 17.5852 20.9442L18.5987 21.5519C18.8747 21.7174 19.2297 21.6735 19.4577 21.4462L21.4462 19.4576C21.6742 19.2297 21.7181 18.8753 21.552 18.5986L20.9443 17.5852C21.5636 16.5957 22.0086 15.5197 22.2709 14.3758L23.4679 14.088C23.7803 14.0098 24 13.729 24 13.4062V10.5938C24 10.271 23.7803 9.99019 23.4678 9.91191ZM12 19.7344C7.73527 19.7344 4.26562 16.2647 4.26562 12C4.26562 7.73527 7.73527 4.26562 12 4.26562C16.2647 4.26562 19.7344 7.73527 19.7344 12C19.7344 16.2647 16.2647 19.7344 12 19.7344Z" fill="#D63222"/>
<path d="M12.3516 7.11179C12.1346 6.98682 11.8655 6.98682 11.6485 7.11179L8.32031 9.03329L12 11.1578L15.6798 9.03329L12.3516 7.11179Z" fill="#D63222"/>
<path d="M12.7031 12.3758V16.6248L16.0313 14.7033C16.249 14.5776 16.3594 14.3456 16.3594 14.0943V10.2513L12.7031 12.3758Z" fill="#D63222"/>
<path d="M7.64062 10.2512V14.0943C7.64062 14.3456 7.7745 14.5777 7.99219 14.7033L11.2969 16.6248V12.3756L7.64062 10.2512Z" fill="#D63222"/>
</svg>
