<svg width="24" height="24" viewBox="0 0 24 24" fill="none" xmlns="http://www.w3.org/2000/svg">
<g clip-path="url(#clip0)">
<path d="M12.7031 10.9286H18.0972V6.83294C16.8193 6.55051 15.459 6.15494 14.0449 5.65422C13.5986 5.4962 13.1501 5.32787 12.7031 5.15247V10.9286Z" fill="#D63222"/>
<path d="M11.2969 10.9286V5.15247C10.8499 5.32787 10.4013 5.4962 9.95508 5.65422C8.541 6.15493 7.18074 6.55051 5.90283 6.83293V10.9285H11.2969V10.9286Z" fill="#D63222"/>
<path d="M11.2971 12.3348H5.97217C6.16693 13.8482 6.76914 15.3002 7.71597 16.5087C8.64854 17.6988 9.89767 18.6259 11.2971 19.1804V12.3348H11.2971Z" fill="#D63222"/>
<path d="M12.0001 0C12.0001 0 6.09989 2.91258 1.44971 2.91258V11.2615C1.44966 17.4909 5.87982 22.8398 12.0001 24C18.1205 22.8398 22.5506 17.4909 22.5506 11.2615V2.91258C17.9004 2.91258 12.0001 0 12.0001 0V0ZM19.5036 11.2615C19.5036 13.4661 18.7534 15.6376 17.3913 17.3759C16.08 19.0495 14.2308 20.2774 12.1845 20.8333L12.0001 20.8834L11.8158 20.8334C9.76946 20.2775 7.92029 19.0496 6.60891 17.376C5.24682 15.6376 4.49668 13.4662 4.49668 11.2616V5.68472L5.06297 5.57241C6.43636 5.29997 7.92441 4.88147 9.48577 4.32863C10.2327 4.06411 10.9868 3.77203 11.7274 3.4605L12.0001 3.34575L12.2728 3.46045C13.0133 3.77198 13.7676 4.06406 14.5145 4.32858C16.0759 4.88142 17.5639 5.29992 18.9373 5.57236L19.5036 5.68467V11.2615H19.5036Z" fill="#D63222"/>
<path d="M12.7031 12.3348V19.1803C14.1025 18.6259 15.3517 17.6988 16.2843 16.5086C17.2311 15.3002 17.8333 13.8481 18.0281 12.3347H12.7031V12.3348Z" fill="#D63222"/>
</g>
<defs>
<clipPath id="clip0">
<rect width="24" height="24" fill="white"/>
</clipPath>
</defs>
</svg>
