<svg width="24" height="24" viewBox="0 0 24 24" fill="none" xmlns="http://www.w3.org/2000/svg">
<g clip-path="url(#clip0)">
<path d="M20.9679 15.9303C20.2811 15.2435 19.2501 15.1065 18.4252 15.518L17.1646 14.2848C17.8958 13.3396 18.3279 12.145 18.3279 10.8748C18.3279 7.79889 15.8258 5.29675 12.7499 5.29675C9.67401 5.29675 7.17188 7.79889 7.17188 10.8748C7.17188 13.8306 9.49228 16.2923 12.4594 16.4453C13.8292 16.5154 15.144 16.0825 16.1718 15.2809L17.4332 16.5148C17.0338 17.3241 17.1565 18.3502 17.8523 19.046L20.2388 21.4325C21.0997 22.2934 22.4934 22.2935 23.3544 21.4325C24.2154 20.5714 24.2154 19.1779 23.3544 18.3168L20.9679 15.9303Z" fill="#D63222"/>
<path d="M20.484 1.92188H3.51556C1.57708 1.92188 0 3.49895 0 5.43743V9.56234C0 11.5008 1.57708 13.0779 3.51556 13.0779H6.12185C4.61902 8.56842 7.99508 3.89058 12.7498 3.89058C17.5043 3.89058 20.8804 8.56711 19.3772 13.0779H20.484C22.4225 13.0779 23.9995 11.5008 23.9995 9.56234V5.43743C23.9995 3.49895 22.4225 1.92188 20.484 1.92188ZM4.45304 9.37485C4.45304 9.76315 4.13823 10.078 3.74993 10.078C3.36162 10.078 3.04682 9.76315 3.04682 9.37485V5.62492C3.04682 5.23662 3.36162 4.92181 3.74993 4.92181C4.13823 4.92181 4.45304 5.23662 4.45304 5.62492V9.37485Z" fill="#D63222"/>
</g>
<defs>
<clipPath id="clip0">
<rect width="24" height="24" fill="white"/>
</clipPath>
</defs>
</svg>
