<svg width="24" height="24" viewBox="0 0 24 24" fill="none" xmlns="http://www.w3.org/2000/svg">
<g clip-path="url(#clip0)">
<path d="M22.4 4.09998H7.69975C7.47885 4.09998 7.29975 4.27908 7.29975 4.49998V5.73293C7.29975 5.94598 7.139 6.13198 6.9264 6.14578C6.69345 6.16088 6.49975 5.97638 6.49975 5.74663V4.49998C6.49975 4.27908 6.32065 4.09998 6.09975 4.09998H1.6C0.71635 4.09998 0 4.81633 0 5.69998V7.90298C0 8.49498 0.3195 9.03298 0.8345 9.30798C2.98605 10.4555 2.98565 13.5446 0.8345 14.692C0.3195 14.967 0 15.505 0 16.097V18.3C0 19.1836 0.71635 19.9 1.6 19.9H6.09985C6.32075 19.9 6.49985 19.7209 6.49985 19.5V18.2668C6.49985 18.0538 6.6606 17.8678 6.8732 17.854C7.10615 17.8389 7.29985 18.0234 7.29985 18.2531V19.5C7.29985 19.7209 7.47895 19.9 7.69985 19.9H22.4C23.2836 19.9 24 19.1836 24 18.3V5.69998C24 4.81633 23.2836 4.09998 22.4 4.09998ZM7.3 15.2307C7.3 15.4516 7.1209 15.6307 6.9 15.6307C6.6791 15.6307 6.5 15.4516 6.5 15.2307V13.6649C6.5 13.444 6.6791 13.2649 6.9 13.2649C7.1209 13.2649 7.3 13.444 7.3 13.6649V15.2307ZM7.3 10.3351C7.3 10.556 7.1209 10.7351 6.9 10.7351C6.6791 10.7351 6.5 10.556 6.5 10.3351V8.76923C6.5 8.54833 6.6791 8.36923 6.9 8.36923C7.1209 8.36923 7.3 8.54833 7.3 8.76923V10.3351ZM11.85 10.0416C11.85 9.60513 12.2051 9.24998 12.6417 9.24998C13.0781 9.24998 13.4333 9.60513 13.4333 10.0416C13.4333 10.4781 13.0781 10.8333 12.6417 10.8333C12.2051 10.8333 11.85 10.4781 11.85 10.0416ZM12.2283 14.3717C12.0721 14.2155 12.0721 13.9623 12.2283 13.806L16.1449 9.88938C16.3012 9.73323 16.5543 9.73323 16.7106 9.88938C16.8668 10.0456 16.8668 10.2988 16.7106 10.4551L12.794 14.3717C12.6377 14.5279 12.3846 14.5279 12.2283 14.3717ZM16.5583 14.75C16.1218 14.75 15.7667 14.3948 15.7667 13.9583C15.7667 13.5218 16.1218 13.1666 16.5583 13.1666C16.9949 13.1666 17.35 13.5218 17.35 13.9583C17.35 14.3948 16.9949 14.75 16.5583 14.75Z" fill="#D63222"/>
</g>
<defs>
<clipPath id="clip0">
<rect width="24" height="24" fill="white"/>
</clipPath>
</defs>
</svg>
