<svg width="24" height="24" viewBox="0 0 24 24" fill="none" xmlns="http://www.w3.org/2000/svg">
<g clip-path="url(#clip0)">
<path d="M3.69722 19.3038C4.13611 18.9818 4.23086 18.3651 3.90892 17.9262C2.6421 16.1993 1.97251 14.1506 1.97251 12.0014C1.97251 6.47225 6.47082 1.97394 12 1.97394C17.5291 1.97394 22.0275 6.47225 22.0275 12.0014C22.0275 14.1506 21.3578 16.1993 20.091 17.9262C19.7691 18.3651 19.8639 18.9819 20.3027 19.3038C20.7425 19.6264 21.359 19.5301 21.6803 19.0921C25.1057 14.4226 24.7624 7.79557 20.4841 3.51732C15.7951 -1.17176 8.20553 -1.17247 3.51584 3.51732C-0.762463 7.79557 -1.10575 14.4227 2.31969 19.0921C2.64158 19.5309 3.25834 19.6257 3.69722 19.3038Z" fill="#D63222"/>
<path d="M13.5017 12.987C15.4253 12.987 16.9902 11.4221 16.9902 9.49856C16.9902 7.57505 15.4253 6.01013 13.5017 6.01013H9.99764C9.45335 6.01013 9.01212 6.45137 9.01212 6.99566V11.016H7.99529C7.451 11.016 7.00977 11.4572 7.00977 12.0015C7.00977 12.5458 7.451 12.987 7.99529 12.987H9.01212V14.0195H7.99529C7.451 14.0195 7.00977 14.4607 7.00977 15.005C7.00977 15.5493 7.451 15.9905 7.99529 15.9905H9.01212V17.0074C9.01212 17.5517 9.45335 17.9929 9.99764 17.9929C10.5419 17.9929 10.9832 17.5517 10.9832 17.0074V15.9905H13.0011C13.5454 15.9905 13.9867 15.5493 13.9867 15.005C13.9867 14.4607 13.5454 14.0195 13.0011 14.0195H10.9832V12.987H13.5017V12.987ZM15.0191 9.49851C15.0191 10.3352 14.3384 11.0159 13.5017 11.0159H10.9832V7.98109H13.5017C14.3384 7.98113 15.0191 8.66185 15.0191 9.49851Z" fill="#D63222"/>
<path d="M23.0131 22.0287H0.987477C0.443186 22.0287 0.00195312 22.4699 0.00195312 23.0142C0.00195312 23.5585 0.443186 23.9997 0.987477 23.9997H23.0131C23.5574 23.9997 23.9987 23.5585 23.9987 23.0142C23.9987 22.4699 23.5574 22.0287 23.0131 22.0287Z" fill="#D63222"/>
</g>
<defs>
<clipPath id="clip0">
<rect width="24" height="24" fill="white"/>
</clipPath>
</defs>
</svg>
