<svg width="24" height="24" viewBox="0 0 24 24" fill="none" xmlns="http://www.w3.org/2000/svg">
<g clip-path="url(#clip0)">
<path d="M11.0388 13.2404L3.2558 8.83728L0 10.9768L7.13176 15.2868L11.0388 13.2404Z" fill="#D63222"/>
<path d="M7.10078 16.3101C7.00047 16.308 6.9032 16.2755 6.82171 16.2171L3.62793 14.2946V17.3643C3.64864 17.8613 3.91626 18.315 4.34109 18.5736L11.1938 22.5736L11.3798 22.6976V14.0155L7.22482 16.248L7.10078 16.3101Z" fill="#D63222"/>
<path d="M11.0388 3.31786L7.13176 1.30237L0 5.61241L3.2558 7.75194L11.0388 3.31786Z" fill="#D63222"/>
<path d="M24.0002 5.61241L16.8684 1.30237L12.9614 3.31786L20.7753 7.75194L24.0002 5.61241Z" fill="#D63222"/>
<path d="M12.9614 13.2404L16.8684 15.2868L24.0002 10.9768L20.7753 8.83728L12.9614 13.2404Z" fill="#D63222"/>
<path d="M16.8682 16.3101L16.6201 16.248L12.3101 14.0155V22.6977C12.6201 22.6667 12.5581 22.6357 12.6201 22.5736L19.6588 18.5736C20.0968 18.3282 20.3692 17.8664 20.372 17.3644V14.2946L17.1472 16.2171L16.8682 16.3101Z" fill="#D63222"/>
<path d="M12.0002 3.84509L4.15527 8.31016L12.0002 12.7133L19.8762 8.31016L12.0002 3.84509Z" fill="#D63222"/>
</g>
<defs>
<clipPath id="clip0">
<rect width="24" height="24" fill="white"/>
</clipPath>
</defs>
</svg>
