<svg width="24" height="24" viewBox="0 0 24 24" fill="none" xmlns="http://www.w3.org/2000/svg">
<path d="M12 0C5.39209 0 0 5.39301 0 12C0 18.6079 5.39301 24 12 24C18.6079 24 24 18.607 24 12C24 5.39209 18.607 0 12 0ZM12 22.5938C6.15857 22.5938 1.40625 17.8414 1.40625 12C1.40625 6.15857 6.15857 1.40625 12 1.40625C17.8414 1.40625 22.5938 6.15857 22.5938 12C22.5938 17.8414 17.8414 22.5938 12 22.5938Z" fill="#D63222"/>
<circle cx="12" cy="12" r="11" fill="white"/>
<path d="M14.5334 8.51306L11.9999 3.37988L9.46649 8.51306L3.80176 9.3363L7.90094 13.3318L6.93323 18.9737L11.9999 16.3099L17.0667 18.9737L16.0989 13.3318L20.1979 9.3363L14.5334 8.51306ZM15.199 16.4031L11.9999 14.7213L8.8009 16.4031L9.41193 12.8408L6.82373 10.3181L10.4005 9.79846L11.9999 6.5575L13.5994 9.79846L17.1761 10.3181L14.588 12.8408L15.199 16.4031Z" fill="#D63222"/>
</svg>
