<svg width="24" height="24" viewBox="0 0 24 24" fill="none" xmlns="http://www.w3.org/2000/svg">
<path d="M8.24023 19.7812C8.88744 19.7812 9.41211 19.2566 9.41211 18.6094C9.41211 17.9622 8.88744 17.4375 8.24023 17.4375C7.59303 17.4375 7.06836 17.9622 7.06836 18.6094C7.06836 19.2566 7.59303 19.7812 8.24023 19.7812Z" fill="#D63222"/>
<path d="M20.396 2.16239C19.9089 1.6748 19.2612 1.40625 18.572 1.40625H18.1053V2.34375C18.1053 3.37762 17.2642 4.21875 16.2303 4.21875H7.79281C6.75894 4.21875 5.91781 3.37762 5.91781 2.34375V1.40625H5.447C4.02702 1.40625 2.87047 2.56153 2.86888 3.98152L2.84961 21.419C2.84886 22.1082 3.11666 22.7563 3.60369 23.2439C4.09072 23.7315 4.73853 24 5.42769 24H18.5527C19.9727 24 21.1293 22.8447 21.1308 21.4247L21.1501 3.98723C21.1509 3.29803 20.8831 2.64994 20.396 2.16239ZM5.66206 18.6094C5.66206 17.1878 6.81861 16.0312 8.24019 16.0312C9.66177 16.0312 10.8183 17.1878 10.8183 18.6094C10.8183 20.031 9.66177 21.1875 8.24019 21.1875C6.81861 21.1875 5.66206 20.031 5.66206 18.6094ZM13.8227 7.08633C13.5481 6.81178 13.5481 6.36656 13.8227 6.09197C14.0973 5.81742 14.5425 5.81742 14.8171 6.09197L15.9772 7.25208L17.1373 6.09197C17.4118 5.81742 17.8571 5.81742 18.1317 6.09197C18.4063 6.36652 18.4063 6.81173 18.1317 7.08633L16.9715 8.24644L18.1317 9.40655C18.4063 9.68109 18.4063 10.1263 18.1317 10.4009C17.9944 10.5382 17.8144 10.6069 17.6345 10.6069C17.4546 10.6069 17.2746 10.5382 17.1373 10.4009L15.9772 9.2408L14.8171 10.4009C14.6798 10.5382 14.4999 10.6069 14.32 10.6069C14.1401 10.6069 13.9601 10.5382 13.8228 10.4009C13.5482 10.1264 13.5482 9.68114 13.8228 9.40655L14.9829 8.24644L13.8227 7.08633ZM7.54499 6.31317C7.81953 6.03862 8.26475 6.03862 8.53934 6.31317L10.2025 7.97634C10.4771 8.25089 10.4771 8.69611 10.2025 8.9707C10.0652 9.108 9.88527 9.17667 9.70536 9.17667C9.52545 9.17667 9.34545 9.108 9.2082 8.9707L8.74911 8.51161V10.94C8.74911 11.8102 9.29572 12.6027 10.1092 12.9118L14.196 14.4648C15.5518 14.98 16.4628 16.3007 16.4628 17.7511V20.4844C16.4628 20.8727 16.148 21.1875 15.7596 21.1875C15.3713 21.1875 15.0565 20.8727 15.0565 20.4844V17.7511C15.0565 16.8809 14.51 16.0884 13.6964 15.7793L9.60969 14.2263C8.25383 13.7111 7.34286 12.3904 7.34286 10.94V8.50402L6.88377 8.96311C6.60922 9.23766 6.164 9.23766 5.88941 8.96311C5.61481 8.68856 5.61481 8.24334 5.88941 7.96875L7.54499 6.31317Z" fill="#D63222"/>
<path d="M7.32422 2.34375C7.32422 2.60264 7.53408 2.8125 7.79297 2.8125H16.2305C16.4894 2.8125 16.6992 2.60264 16.6992 2.34375V0.46875C16.6992 0.209859 16.4894 0 16.2305 0H7.79297C7.53408 0 7.32422 0.209859 7.32422 0.46875V2.34375Z" fill="#D63222"/>
</svg>
