<svg width="484" height="601" viewBox="0 0 484 601" fill="none" xmlns="http://www.w3.org/2000/svg">
<g clip-path="url(#clip0)">
<path d="M425.613 359.311C434.165 354.374 439.945 347.272 443.025 338.059L272.999 292.497C271.482 295.842 270.015 299.09 268.636 302.169C264.001 312.77 260.132 321.187 257.023 327.413C253.919 333.646 249.192 340.902 242.844 349.188C236.494 357.482 229.71 363.705 222.49 367.873L222.279 367.995L222.068 368.117C214.847 372.286 206.066 375.05 195.709 376.402C185.355 377.758 176.707 378.225 169.762 377.793C162.817 377.372 153.596 376.513 142.094 375.229C138.893 374.878 135.354 374.509 131.54 374.13L85.9803 544.199C95.4984 546.138 104.544 544.68 113.095 539.743L425.613 359.311Z" fill="white" fill-opacity="0.2"/>
<path d="M-5.70442 362.902C-16.875 362.182 -27.5834 360.153 -37.8157 356.811L56.8703 520.811L97.0246 370.953C70.3569 368.658 36.1562 365.975 -5.70442 362.902Z" fill="white" fill-opacity="0.2"/>
<path d="M332.08 167.883C314.462 204.151 299.612 235.192 287.533 261.014L437.333 301.156L342.645 137.152C340.481 147.465 336.958 157.705 332.08 167.883Z" fill="white" fill-opacity="0.2"/>
<path d="M253.023 60.377L-59.4936 240.809C-70.3964 247.103 -76.653 255.624 -78.2782 266.37C-79.9062 277.123 -77.5262 288.02 -71.1537 299.057C-66.0064 307.973 -56.536 315.385 -42.7446 321.299C-28.9556 327.209 -15.9563 330.6 -3.74868 331.477C3.02489 332.098 23.3567 333.808 57.2447 336.603C75.5395 338.114 91.4597 339.446 105.157 340.618C116.829 341.612 126.907 342.49 135.24 343.237C136.196 343.321 137.708 343.469 139.714 343.664C141.879 343.88 144.62 344.157 148.004 344.502C154.525 345.173 159.898 345.656 164.128 345.953C168.354 346.254 173.361 346.423 179.153 346.478C184.939 346.531 190.115 346.095 194.671 345.161C199.228 344.227 203.134 342.823 206.389 340.944L206.601 340.822L206.812 340.7C210.066 338.821 213.236 336.139 216.324 332.66C219.41 329.181 222.375 324.923 225.223 319.879C228.067 314.839 230.417 310.415 232.282 306.605C234.139 302.793 236.408 297.899 239.088 291.915C240.476 288.814 241.606 286.301 242.504 284.323C243.336 282.483 243.967 281.105 244.373 280.228C247.135 274.35 251.442 265.195 257.238 252.893C267.779 230.501 283.308 197.534 303.895 153.859C310.06 140.677 313.664 126.986 314.72 112.793C315.762 98.6068 313.064 85.9159 306.608 74.7341C301.215 65.3917 293.233 59.341 282.672 56.5613C272.107 53.7942 262.223 55.0654 253.023 60.377Z" fill="white" fill-opacity="0.2"/>
</g>
<defs>
<clipPath id="clip0">
<rect width="439.318" height="439.318" fill="white" transform="translate(-117 219.659) rotate(-30)"/>
</clipPath>
</defs>
</svg>
