<svg width="48" height="48" viewBox="0 0 48 48" fill="none" xmlns="http://www.w3.org/2000/svg">
<path d="M37.0169 14.6441C36.2034 13.8305 28.8814 13.8305 28.8814 13.8305V12.2034C28.8814 10.4061 27.4244 8.94916 25.6271 8.94916H22.3729C20.5756 8.94916 19.1186 10.4061 19.1186 12.2034V13.8305C19.1186 13.8305 11.7966 13.8305 10.983 14.6441C10.1695 15.4576 6.10169 24.4068 5.28813 25.2203C3.76922 26.7393 1.22034 29.5664 1.22034 31.7288C1.22034 34.1695 2.0339 35.7966 2.0339 38.2373V45.5593C2.0339 46.9073 3.12662 48 4.47457 48H6.10169C7.44964 48 8.54237 46.9073 8.54237 45.5593V43.1187C8.54237 43.1187 14.2373 44.7458 24 44.7458C33.7627 44.7458 39.4576 43.1187 39.4576 43.1187V45.5593C39.4576 46.9073 40.5504 48 41.8983 48H43.5254C44.8734 48 45.9661 46.9073 45.9661 45.5593V38.2373C45.9661 35.8942 46.7146 34.2997 46.7715 32.0054C46.9757 29.7649 44.3073 26.8157 42.7119 25.2203C41.8983 24.4068 37.8305 15.4576 37.0169 14.6441ZM24 12.2034C24.8986 12.2034 25.6271 12.9319 25.6271 13.8305C25.6271 14.7291 24.8986 15.4576 24 15.4576C23.1014 15.4576 22.3729 14.7291 22.3729 13.8305C22.3756 12.933 23.1025 12.2061 24 12.2034ZM12.9193 35.341C12.7798 35.6218 12.4925 35.7986 12.179 35.7966C3.92135 35.6664 4.18169 32.2332 4.67796 30.7607C4.81908 30.377 5.22302 30.1576 5.62169 30.2481C7.80148 30.6518 10.0112 30.8722 12.2278 30.9071C12.621 30.9434 12.9511 31.2184 13.0576 31.5986C13.5569 32.807 13.5064 34.1728 12.9193 35.341ZM24 37.4237C18.6082 37.4237 14.2373 33.0528 14.2373 27.661C14.2373 22.2692 18.6082 17.8983 24 17.8983C29.3918 17.8983 33.7627 22.2692 33.7627 27.661C33.7582 33.051 29.3899 37.4192 24 37.4237ZM43.322 30.7607C43.4526 31.1433 43.5213 31.5442 43.5254 31.9485C43.5254 33.5756 42.2807 35.6909 35.821 35.7966C35.5075 35.7986 35.2202 35.6218 35.0807 35.341C34.5229 34.2607 34.4347 32.9983 34.8366 31.8509C35.0286 31.3709 35.2222 30.9218 35.7722 30.9071C37.9888 30.8722 40.1985 30.6518 42.3783 30.2481C42.777 30.1576 43.1809 30.377 43.322 30.7607Z" fill="white"/>
<path d="M24 19.5254C19.5068 19.5254 15.8644 23.1678 15.8644 27.661C15.8644 32.1542 19.5068 35.7966 24 35.7966C28.4931 35.7966 32.1356 32.1542 32.1356 27.661C32.1284 23.1708 28.4902 19.5326 24 19.5254ZM31.322 27.661C31.322 28.1103 30.9578 28.4746 30.5084 28.4746H28.4746L26.2779 31.4034C26.1089 31.6274 25.8362 31.7485 25.5566 31.7237C25.2771 31.6988 25.03 31.5317 24.903 31.2814L22.2345 25.9444L20.583 28.1491C20.4282 28.3526 20.1878 28.4728 19.9322 28.4746H17.4915C17.0422 28.4746 16.6779 28.1103 16.6779 27.661C16.6779 27.2117 17.0422 26.8475 17.4915 26.8475H19.5254L21.722 23.9186C21.8896 23.6921 22.163 23.5691 22.4437 23.594C22.7244 23.6189 22.9719 23.7881 23.0969 24.0407L25.7654 29.3776L27.4169 27.1729C27.5717 26.9694 27.8121 26.8492 28.0678 26.8475H30.5084C30.9578 26.8475 31.322 27.2117 31.322 27.661Z" fill="white"/>
<path d="M35.0896 6.72163C35.3874 7.03804 35.8814 7.06451 36.2113 6.78174C36.5413 6.49898 36.5908 6.00681 36.3237 5.664C33.2368 2.07075 28.7355 0.00350571 23.9983 0.00350571C19.2611 0.00350571 14.7598 2.07075 11.6729 5.664C11.4058 6.00681 11.4553 6.49898 11.7853 6.78174C12.1153 7.06451 12.6092 7.03804 12.9071 6.72163C15.6846 3.48766 19.7353 1.62703 23.9983 1.62703C28.2613 1.62703 32.312 3.48766 35.0896 6.72163Z" fill="white"/>
<path d="M14.5497 8.56678C14.3665 8.79248 14.3175 9.09879 14.4213 9.37035C14.5252 9.6419 14.766 9.83744 15.0531 9.8833C15.3402 9.92916 15.6299 9.81838 15.8132 9.59268C17.8159 7.12688 20.8234 5.69509 24 5.69509C27.1767 5.69509 30.1841 7.12688 32.1869 9.59268C32.3701 9.81838 32.6599 9.92916 32.9469 9.8833C33.234 9.83744 33.4748 9.6419 33.5787 9.37035C33.6825 9.09879 33.6336 8.79248 33.4503 8.56678C31.1384 5.72051 27.6669 4.06782 24 4.06782C20.3331 4.06782 16.8616 5.72051 14.5497 8.56678Z" fill="white"/>
</svg>
