<svg width="48" height="48" viewBox="0 0 48 48" fill="none" xmlns="http://www.w3.org/2000/svg">
<path d="M35.6816 28.0656C35.1823 23.9984 32.9392 21.0161 30.1631 21.0161H17.8369C15.0608 21.0161 12.8161 24 12.3168 28.0656C10.5631 29.0688 9.63989 30.9793 9.63989 33.2001C9.63989 34.5905 10.0158 35.8529 10.7136 36.8625V41.3218H16.568V39.0897H31.432V41.3218H37.2848V36.8625C37.9825 35.8561 38.3601 34.5937 38.3601 33.2001C38.3601 30.9777 37.4336 29.0688 35.6816 28.0656ZM14.6017 35.112C13.5457 35.112 12.6882 34.2593 12.6882 33.2001C12.6882 32.141 13.5457 31.2866 14.6017 31.2866C15.6593 31.2866 16.5168 32.141 16.5168 33.2001C16.5168 34.2593 15.6593 35.112 14.6017 35.112ZM15.2863 27.3089C14.9055 27.3089 14.5534 27.3537 14.211 27.4065C14.7631 24.7377 16.1982 22.773 17.8382 22.773H30.1663C31.8031 22.773 33.2382 24.7377 33.7919 27.4065C33.608 27.3795 33.4144 27.3698 33.2208 27.3569C33.2208 27.3408 33.2272 27.325 33.2272 27.3105C33.2272 25.6226 31.8543 24.2496 30.1647 24.2496C28.4783 24.2496 27.1054 25.6226 27.1054 27.3105H15.2863V27.3089ZM29.56 34.9007H18.4432C18.1184 34.9007 17.8575 34.6382 17.8575 34.3151C17.8575 33.9936 18.1201 33.7311 18.4432 33.7311H29.56C29.8831 33.7311 30.1441 33.9936 30.1441 34.3151C30.1441 34.6385 29.8815 34.9007 29.56 34.9007ZM29.56 33.2256H18.4432C18.1184 33.2256 17.8575 32.9631 17.8575 32.64C17.8575 32.3169 18.1201 32.0543 18.4432 32.0543H29.56C29.8831 32.0543 30.1441 32.3169 30.1441 32.64C30.1441 32.9631 29.8815 33.2256 29.56 33.2256ZM28.2753 27.3089C28.2753 26.2691 29.1232 25.4193 30.1666 25.4193C31.2065 25.4193 32.0562 26.2672 32.0562 27.3089H28.2753ZM33.3983 35.112C32.3407 35.112 31.4832 34.2593 31.4832 33.2001C31.4832 32.141 32.3407 31.2866 33.3983 31.2866C34.4543 31.2866 35.3118 32.141 35.3118 33.2001C35.3088 34.2593 34.4545 35.112 33.3983 35.112Z" fill="white"/>
<path d="M38.3598 6.4385H9.63989V8.77943H38.3598V6.4385Z" fill="white"/>
<path d="M22.4209 15.5008C22.4209 16.3728 23.1264 17.0815 24 17.0815C24.872 17.0815 25.5775 16.3744 25.5775 15.5008C25.5775 14.6272 24 11.8591 24 11.8591C24 11.8591 22.4209 14.6288 22.4209 15.5008Z" fill="white"/>
<path d="M17.6641 12.8912C17.6641 13.7632 18.3696 14.4703 19.2448 14.4703C20.1168 14.4703 20.8255 13.7632 20.8255 12.8912C20.8255 12.016 19.2448 9.24626 19.2448 9.24626C19.2448 9.24626 17.6641 12.0143 17.6641 12.8912Z" fill="white"/>
<path d="M27.1743 12.8912C27.1743 13.7632 27.8798 14.4703 28.755 14.4703C29.6271 14.4703 30.3342 13.7632 30.3342 12.8912C30.3342 12.016 28.755 9.24626 28.755 9.24626C28.755 9.24626 27.1743 12.0143 27.1743 12.8912Z" fill="white"/>
<path d="M48 22.5585V20.2143H44.8769V7.02574H3.12311V20.2143H0V22.5585H3.12311V22.9328H0V25.2721H3.12311V25.6448H0V27.9858H3.12311V28.3617H0V30.7024H3.12311V31.0754H0V33.416H3.12311V33.7903H0V36.1313H3.12311V36.5024H0V38.8449H3.12311V39.2209H0V41.5615H7.41589V39.2209H4.29277V38.8449H7.41589V36.5024H4.29277V36.1313H7.41589V33.7903H4.29277V33.416H7.41589V31.0754H4.29277V30.7024H7.41589V28.3617H4.29277V27.9858H7.41589V25.6448H4.29277V25.2721H7.41589V22.9328H4.29277V22.5585H7.41589V20.2143H4.29277V8.19674H43.7056V20.2143H40.5841V22.5585H43.7056V22.9328H40.5841V25.2721H43.7056V25.6448H40.5841V27.9858H43.7056V28.3617H40.5841V30.7024H43.7056V31.0754H40.5841V33.416H43.7056V33.7903H40.5841V36.1313H43.7056V36.5024H40.5841V38.8449H43.7056V39.2209H40.5841V41.5615H48V39.2209H44.8769V38.8449H48V36.5024H44.8769V36.1313H48V33.7903H44.8769V33.416H48V31.0754H44.8769V30.7024H48V28.3617H44.8769V27.9858H48V25.6448H44.8769V25.2721H48V22.9328H44.8769V22.5585H48Z" fill="white"/>
</svg>
