<svg width="48" height="48" viewBox="0 0 48 48" fill="none" xmlns="http://www.w3.org/2000/svg">
<g clip-path="url(#clip0)">
<path d="M14.2483 25.9036C14.2483 28.3543 16.2421 30.3481 18.6928 30.3481C21.1435 30.3481 23.1373 28.3543 23.1373 25.9036C23.1373 23.4529 21.1435 21.4591 18.6928 21.4591C16.2421 21.4591 14.2483 23.4538 14.2483 25.9036ZM21.3595 24.1258V27.6814C21.3595 28.1721 20.9613 28.5703 20.4706 28.5703H16.915C16.4243 28.5703 16.0261 28.1721 16.0261 27.6814V24.1258C16.0261 23.6351 16.4243 23.2369 16.915 23.2369H20.4706C20.9622 23.2369 21.3595 23.6351 21.3595 24.1258Z" fill="white"/>
<path d="M19.5816 25.0147H17.8038V26.7925H19.5816V25.0147Z" fill="white"/>
<path d="M42.6932 0.125336V1.01424V20.5702V21.4591H44.471V19.6813V1.90315V0.125336H42.6932Z" fill="white"/>
<path d="M8.91479 25.9036C8.91479 31.2948 13.3015 35.6815 18.6927 35.6815C24.084 35.6815 28.4707 31.2948 28.4707 25.9036C28.4707 22.1595 26.3862 18.8137 23.0235 17.1488L22.2421 16.9683L18.5932 16.1265C13.2473 16.1807 8.91479 20.5462 8.91479 25.9036ZM19.5817 18.7924V19.7524C22.3008 20.1444 24.452 22.2955 24.844 25.0147H25.804C26.2947 25.0147 26.6929 25.4129 26.6929 25.9036C26.6929 26.3943 26.2947 26.7925 25.804 26.7925H24.844C24.452 29.5117 22.3008 31.6628 19.5817 32.0548V33.0148C19.5817 33.5055 19.1834 33.9037 18.6927 33.9037C18.2021 33.9037 17.8038 33.5055 17.8038 33.0148V32.0548C15.0847 31.6628 12.9335 29.5117 12.5415 26.7925H11.5815C11.0908 26.7925 10.6926 26.3943 10.6926 25.9036C10.6926 25.4129 11.0908 25.0147 11.5815 25.0147H12.5415C12.9326 22.2955 15.0847 20.1435 17.8038 19.7524V18.7924C17.8038 18.3017 18.2021 17.9034 18.6927 17.9034C19.1834 17.9034 19.5817 18.3017 19.5817 18.7924Z" fill="white"/>
<path d="M30.2485 25.9036C30.2485 32.2753 25.0644 37.4594 18.6928 37.4594C12.3211 37.4594 7.137 32.2753 7.137 25.9036C7.137 19.5319 12.3211 14.3478 18.6928 14.3478C18.7603 14.3478 18.827 14.3558 18.8928 14.37L37.3696 18.6341H37.3704L40.9154 19.4519V2.13159L26.8156 5.38588C23.7426 6.09433 20.5959 6.6339 17.5541 7.1548L15.4643 7.5148C6.09342 9.14861 -0.528035 17.5674 0.063976 27.0965C0.311092 31.0744 1.81601 34.7082 4.17427 37.6256C4.20805 37.6558 4.25072 37.6745 4.28005 37.71C6.11476 39.9421 8.46324 41.7457 11.0704 42.9253C11.1051 42.9404 11.1335 42.9635 11.1646 42.983C13.1256 43.8479 15.2571 44.3946 17.5016 44.5333C22.7186 44.8613 27.6832 43.0719 31.4752 39.5083C35.2709 35.9411 37.3607 31.1099 37.3607 25.9036C37.3607 23.9791 37.0522 22.0822 36.47 20.251L27.2298 18.1186C29.1445 20.2039 30.2485 22.9471 30.2485 25.9036ZM24.7382 7.65525C25.5649 7.48725 26.3916 7.30947 27.2156 7.11924C27.6938 7.0108 28.1712 7.3068 28.2814 7.78592C28.3916 8.26415 28.0938 8.7415 27.6147 8.85172C26.7756 9.0455 25.9338 9.22595 25.0929 9.39751C25.0333 9.40995 24.9729 9.41529 24.9142 9.41529C24.5009 9.41529 24.1302 9.12461 24.044 8.70327C23.9462 8.22237 24.2573 7.75214 24.7382 7.65525ZM15.7709 9.26595L17.8528 8.90772C19.0012 8.71038 20.099 8.52282 21.2039 8.32549C21.6839 8.23749 22.1488 8.56016 22.2351 9.04372C22.3213 9.52729 21.9995 9.98863 21.5168 10.0757C20.4084 10.274 19.3061 10.4633 18.2172 10.65L16.0723 11.0189C16.0207 11.0278 15.97 11.0322 15.9203 11.0322C15.4954 11.0322 15.1203 10.7273 15.0456 10.2944C14.9629 9.80996 15.2874 9.34951 15.7709 9.26595ZM3.6116 26.8778C3.64182 27.3676 3.26937 27.7899 2.77958 27.8201C2.76092 27.821 2.74225 27.8219 2.72358 27.8219C2.25779 27.8219 1.86668 27.4592 1.83734 26.9881C1.41245 20.1524 5.08274 13.7834 11.1877 10.7629C11.6277 10.5469 12.1611 10.7255 12.3789 11.1655C12.5967 11.6055 12.4162 12.1389 11.9762 12.3567C6.51565 15.0581 3.23204 20.7568 3.6116 26.8778Z" fill="white"/>
<path d="M5.11826 48.0631L9.18945 43.9919C7.97165 43.351 6.82318 42.6008 5.76627 41.7367L4.23558 43.3954C4.06046 43.5857 3.82224 43.6826 3.58223 43.6826C3.36623 43.6826 3.15022 43.6052 2.97955 43.447C2.61866 43.1137 2.59555 42.5519 2.92889 42.191L4.44002 40.5527C4.12446 40.2452 3.8249 39.9225 3.52979 39.5954L0.0897217 43.0345C1.10663 45.2719 2.88 47.0453 5.11826 48.0631Z" fill="white"/>
<path d="M48.0266 5.45877C48.0266 4.29964 47.2835 3.31118 46.2488 2.94406V18.6395C47.2835 18.2723 48.0266 17.2839 48.0266 16.1247V5.45877Z" fill="white"/>
</g>
<defs>
<clipPath id="clip0">
<rect width="48" height="48" fill="white"/>
</clipPath>
</defs>
</svg>
