<svg width="15" height="16" viewBox="0 0 15 16" fill="none" xmlns="http://www.w3.org/2000/svg">
<path d="M14.9928 12.4338C15.0246 12.6775 14.9504 12.8893 14.7705 13.0694L12.6586 15.1668C12.5633 15.2727 12.4389 15.3628 12.2854 15.4369C12.1319 15.5111 11.9811 15.5587 11.8329 15.5799C11.8224 15.5799 11.7905 15.5826 11.7376 15.5879C11.6847 15.5932 11.6159 15.5959 11.5312 15.5959C11.33 15.5959 11.0045 15.5615 10.5545 15.4926C10.1046 15.4237 9.55416 15.2542 8.90316 14.9841C8.252 14.714 7.51363 14.3087 6.68792 13.7685C5.86222 13.2284 4.98353 12.4868 4.05193 11.544C3.31089 10.813 2.69689 10.1139 2.20992 9.44653C1.72295 8.77913 1.33125 8.16208 1.03484 7.59534C0.738394 7.02861 0.516082 6.51484 0.367874 6.05403C0.219666 5.59323 0.119096 5.19598 0.0661644 4.8623C0.0132329 4.52861 -0.00793973 4.26643 0.00264658 4.07575C0.0132329 3.88507 0.018526 3.77914 0.018526 3.75796C0.0396986 3.60965 0.087337 3.4587 0.161441 3.3051C0.235545 3.1515 0.325529 3.02703 0.431392 2.93169L2.54336 0.818343C2.69157 0.670039 2.86095 0.595886 3.0515 0.595886C3.18912 0.595886 3.31087 0.635611 3.41673 0.71506C3.52259 0.794509 3.61258 0.892496 3.68668 1.00902L5.38578 4.23465C5.48106 4.40414 5.50752 4.58952 5.46518 4.79079C5.42283 4.99206 5.33285 5.16155 5.19523 5.29927L4.41713 6.07787C4.39596 6.09905 4.37744 6.13348 4.36156 6.18115C4.34568 6.22882 4.33774 6.26854 4.33774 6.30032C4.38008 6.52278 4.47536 6.77702 4.62357 7.06303C4.7506 7.31727 4.94645 7.62712 5.21111 7.99259C5.47576 8.35805 5.85158 8.77911 6.33855 9.2558C6.81493 9.74314 7.23838 10.1218 7.6089 10.392C7.97935 10.662 8.2891 10.8607 8.53788 10.9878C8.78666 11.1149 8.97721 11.1917 9.10951 11.2181L9.30795 11.2579C9.32913 11.2579 9.36361 11.2499 9.4112 11.2341C9.45883 11.2181 9.49324 11.1996 9.51444 11.1784L10.4195 10.2568C10.6102 10.0873 10.8324 10.0026 11.0865 10.0026C11.2665 10.0026 11.4094 10.0343 11.5152 10.0979H11.5311L14.5958 11.9094C14.8182 12.0472 14.9505 12.2219 14.9928 12.4338Z" fill="#D63222"/>
</svg>
