<svg width="15" height="15" viewBox="0 0 15 15" fill="none" xmlns="http://www.w3.org/2000/svg">
<g clip-path="url(#clip0)">
<path d="M14.97 6.42107C14.918 6.31033 14.8069 6.23948 14.6841 6.23948H13.7499C13.156 3.01646 10.3258 0.566406 6.93368 0.566406C3.11068 0.566406 0 3.67708 0 7.50009C0 11.3231 3.11036 14.4335 6.93368 14.4335C9.40097 14.4335 11.702 13.1055 12.9387 10.9685C13.1129 10.6669 13.0101 10.2817 12.7082 10.1072C12.407 9.93259 12.0214 10.0354 11.8475 10.3369C10.8352 12.0862 8.95226 13.1732 6.93368 13.1732C3.80577 13.1732 1.26061 10.6283 1.26061 7.50073C1.26061 4.3725 3.80577 1.82766 6.93368 1.82766C9.62788 1.82766 11.8852 3.7173 12.4603 6.2398H11.5335C11.4106 6.2398 11.2999 6.31065 11.2475 6.42139C11.1955 6.53213 11.2124 6.66266 11.2909 6.75681L12.8669 8.64772C12.9269 8.71953 13.0153 8.76102 13.1091 8.76102C13.2026 8.76102 13.2913 8.71921 13.351 8.64772L14.9269 6.75681C15.0054 6.66234 15.022 6.53181 14.97 6.42107Z" fill="#D63222"/>
<path d="M6.93364 2.14233C6.58546 2.14233 6.30334 2.42446 6.30334 2.77264V6.59724C6.01834 6.79702 5.83069 7.12638 5.83069 7.50041C5.83069 8.1087 6.32568 8.60369 6.93396 8.60369C7.10055 8.60369 7.25757 8.56379 7.39927 8.49709L9.59178 9.76249C9.69135 9.82026 9.79922 9.84738 9.90645 9.84738C10.1241 9.84738 10.336 9.73441 10.4528 9.53207C10.6268 9.23112 10.5237 8.84528 10.2218 8.67134L8.02702 7.40403C7.99766 7.07085 7.82437 6.77979 7.56459 6.59788V2.77264C7.56395 2.42477 7.28151 2.14233 6.93364 2.14233ZM6.93364 7.97274C6.6729 7.97274 6.46099 7.76051 6.46099 7.50041C6.46099 7.23999 6.67322 7.02776 6.93364 7.02776C7.19406 7.02776 7.40629 7.23999 7.40629 7.50041C7.40629 7.76051 7.19406 7.97274 6.93364 7.97274Z" fill="#D63222"/>
</g>
<defs>
<clipPath id="clip0">
<rect width="15" height="15" fill="white" transform="translate(0 -0.000244141)"/>
</clipPath>
</defs>
</svg>
